<svg version="1.1" xmlns="http://www.w3.org/2000/svg" width="1024" height="1024">
<path d="M0 0 C337.92 0 675.84 0 1024 0 C1024 337.92 1024 675.84 1024 1024 C686.08 1024 348.16 1024 0 1024 C0 686.08 0 348.16 0 0 Z " fill="#F3F4F2" transform="translate(0,0)"/>
<path d="M0 0 C1.71509766 0.85658203 1.71509766 0.85658203 3.46484375 1.73046875 C19.43289067 10.07983018 32.77423477 23.67588982 38.5 41 C39.10328125 42.794375 39.10328125 42.794375 39.71875 44.625 C42.90517604 55.14944011 44.53278567 64.98631701 44.4375 76 C44.42847656 77.26094482 44.41945313 78.52188965 44.41015625 79.82104492 C44.0846294 97.63120637 41.11194193 112.63024581 32 128 C31.48179687 128.88042969 30.96359375 129.76085937 30.4296875 130.66796875 C27.32065943 135.60333845 23.59439249 139.87805611 19.63671875 144.15234375 C17.93686136 145.91100783 17.93686136 145.91100783 17 148 C14.37598341 149.59783868 11.66467236 150.98873998 8.9453125 152.41796875 C6.09784002 153.89953003 6.09784002 153.89953003 3.8671875 155.36328125 C-9.45832031 163.80276953 -29.02792134 165.57060314 -44.23828125 162.3046875 C-46.69130806 161.39672423 -48.7738889 160.3676486 -51 159 C-51.79535156 158.52949219 -52.59070313 158.05898438 -53.41015625 157.57421875 C-57.79532425 154.81477157 -61.47750689 151.82442109 -65 148 C-66.051875 147.071875 -66.051875 147.071875 -67.125 146.125 C-69 144 -69 144 -72 137 C-72.33 162.74 -72.66 188.48 -73 215 C-88.51 215 -104.02 215 -120 215 C-120 145.37 -120 75.74 -120 4 C-111.585 3.01 -111.585 3.01 -103 2 C-101.02 1.34 -99.04 0.68 -97 0 C-93.67578125 -0.265625 -93.67578125 -0.265625 -90.3125 -0.25 C-89.19488281 -0.25515625 -88.07726562 -0.2603125 -86.92578125 -0.265625 C-84 0 -84 0 -81 2 C-80.56762695 4.33837891 -80.56762695 4.33837891 -80.48828125 7.2265625 C-80.45283203 8.2578125 -80.41738281 9.2890625 -80.38085938 10.3515625 C-80.34702148 11.97191406 -80.34702148 11.97191406 -80.3125 13.625 C-80.27833984 14.71296875 -80.24417969 15.8009375 -80.20898438 16.921875 C-80.12631666 19.61448063 -80.05722913 22.30675291 -80 25 C-79.21689453 23.85724609 -79.21689453 23.85724609 -78.41796875 22.69140625 C-73.07109813 15.19080491 -67.49945511 9.47561415 -60 4 C-59.35675781 3.48566406 -58.71351563 2.97132813 -58.05078125 2.44140625 C-44.25081335 -7.6466397 -14.73068137 -7.61192414 0 0 Z " fill="#030203" transform="translate(904,475)"/>
<path d="M0 0 C0.495 0.495 0.495 0.495 1 1 C2.216875 1.2475 3.43375 1.495 4.6875 1.75 C19.77785446 5.04200408 30.82248658 11.59254491 42 22 C42.60714844 22.55429687 43.21429687 23.10859375 43.83984375 23.6796875 C51.4562371 30.91276127 55.9789182 39.38436962 60 49 C60.51433594 50.16982422 60.51433594 50.16982422 61.0390625 51.36328125 C67.43936976 68.92509994 67.10491601 91.18531367 62 109 C61.02679453 111.01317439 60.02737273 113.01392214 59 115 C58.50693359 116.49466797 58.50693359 116.49466797 58.00390625 118.01953125 C52.12291367 135.47944309 37.72979039 149.25408962 21.625 157.4375 C19.75567277 158.30401106 17.88142431 159.16007843 16 160 C14.88625 160.556875 13.7725 161.11375 12.625 161.6875 C1.85344494 165.5875458 -8.93374348 166.5246691 -20.3125 166.4375 C-20.98643799 166.43545563 -21.66037598 166.43341125 -22.35473633 166.43130493 C-43.26538339 166.32821294 -64.39793686 160.8602498 -80.06640625 146.1015625 C-88.82374826 136.58348169 -95.57715555 126.46737235 -99.32421875 114.0078125 C-99.930889 111.98443993 -99.930889 111.98443993 -101.01953125 110.2421875 C-104.15945526 103.06164414 -103.21888537 94.18818837 -103.24023438 86.49365234 C-103.24988337 84.40030286 -103.28095784 82.30796165 -103.3125 80.21484375 C-103.46670648 60.76660911 -98.50385364 42.1252066 -86 27 C-85.21625 25.948125 -84.4325 24.89625 -83.625 23.8125 C-72.5228766 11.91736778 -58.66924669 4.91731167 -43 1 C-42.12859375 0.7421875 -41.2571875 0.484375 -40.359375 0.21875 C-27.67703462 -3.2226891 -12.72657814 -3.70966214 0 0 Z " fill="#030304" transform="translate(681,472)"/>
<path d="M0 0 C15.84 0 31.68 0 48 0 C48.33 35.97 48.66 71.94 49 109 C52.96 104.71 56.92 100.42 61 96 C64.22871459 93.83278062 66.53003327 92.39514126 70 91 C70.87398438 90.63648438 71.74796875 90.27296875 72.6484375 89.8984375 C89.17851926 83.46235525 106.30200375 82.80620837 123 89 C133.71508414 93.76055881 144.93979192 103.33154687 150 114 C150.51175781 115.0621875 151.02351562 116.124375 151.55078125 117.21875 C159.99630786 135.76262705 159.14954625 155.39119146 159.09765625 175.3671875 C159.09578726 177.49952155 159.09436563 179.63185604 159.09336853 181.76419067 C159.08958124 187.33055848 159.07978404 192.89689949 159.06866455 198.46325684 C159.05655258 205.16657457 159.05203013 211.86990135 159.04621124 218.57322693 C159.03656966 228.71550316 159.01738676 238.85772079 159 249 C142.5 249 126 249 109 249 C108.95101562 241.77867187 108.90203125 234.55734375 108.8515625 227.1171875 C108.816176 222.54165267 108.78021587 217.96613677 108.7421875 213.390625 C108.68188554 206.12860832 108.62370499 198.86661813 108.578125 191.60449219 C108.54124359 185.74945391 108.49487549 179.89456049 108.44193649 174.03964615 C108.4234078 171.80617947 108.40829422 169.57268176 108.39665604 167.33916855 C108.37976776 164.21017379 108.35072585 161.0815097 108.31884766 157.95263672 C108.31668747 157.02978378 108.31452728 156.10693085 108.31230164 155.15611267 C108.25002185 150.36899663 107.83481819 146.49839645 106 142 C105.66548828 140.98292969 105.66548828 140.98292969 105.32421875 139.9453125 C103.20947431 133.89947871 100.64362476 127.99883824 95.4375 124.0625 C93.28098022 123.12247856 91.30976156 122.42773362 89 122 C89 121.34 89 120.68 89 120 C72.48321537 121.52339276 62.98692761 125.37560269 51.89254761 138.49816895 C48.25299233 143.42832521 48.15113394 147.66010339 48.22705078 153.63867188 C48.21642105 154.67371857 48.20579132 155.70876526 48.19483948 156.775177 C48.16688494 160.17353549 48.18082332 163.57033009 48.1953125 166.96875 C48.18405763 169.33387605 48.17017493 171.69899093 48.15377808 174.06408691 C48.11777342 180.2718253 48.11736254 186.47907083 48.12445068 192.68688965 C48.12552501 200.14437862 48.08223835 207.60172706 48.04641724 215.05911255 C47.99702329 226.37299699 48.00385894 237.68559578 48 249 C32.16 249 16.32 249 0 249 C0 166.83 0 84.66 0 0 Z " fill="#020202" transform="translate(378,385)"/>
<path d="M0 0 C0.92530518 -0.01503571 1.85061035 -0.03007141 2.80395508 -0.04556274 C5.83026356 -0.0855537 8.85629843 -0.11037754 11.8828125 -0.12890625 C12.90457581 -0.13574432 13.92633911 -0.1425824 14.97906494 -0.14962769 C30.95986207 -0.2026526 45.23264384 1.17561519 60.62402344 5.66357422 C63.74489458 6.50803771 66.79745038 6.95536449 70.0078125 7.30859375 C68.02623837 20.18882559 64.8925392 35.53914034 59.0078125 47.30859375 C55.47860717 46.34526474 52.10793087 45.34755491 48.6953125 44.01953125 C38.94270934 40.48627884 29.56528951 39.78568595 19.2578125 39.74609375 C17.95585937 39.73175293 16.65390625 39.71741211 15.3125 39.70263672 C3.84452114 39.82039867 -6.83903648 41.43277343 -15.50390625 49.4296875 C-19.96999054 55.06797239 -19.53301042 61.46107773 -18.9921875 68.30859375 C-17.58790409 76.59386585 -13.38350053 81.15797704 -6.7109375 85.9453125 C1.0383479 90.8341999 9.46670175 94.08811374 17.92382812 97.53735352 C38.69902418 106.03997464 60.58507521 116.20911361 70.58203125 137.69140625 C73.72060853 145.58731126 75.16208722 152.58541179 75.17578125 161.0859375 C75.17910965 161.81551163 75.18243805 162.54508575 75.18586731 163.29676819 C75.19090541 164.83219782 75.1932766 166.36763829 75.19311523 167.90307617 C75.19530275 170.23569971 75.21349411 172.56785047 75.23242188 174.90039062 C75.23535637 176.39973798 75.23734079 177.89908756 75.23828125 179.3984375 C75.24546677 180.08719467 75.25265228 180.77595184 75.26005554 181.48558044 C75.23869262 186.07399288 74.43260084 189.95875893 73.0078125 194.30859375 C72.78480469 195.00726562 72.56179688 195.7059375 72.33203125 196.42578125 C68.10578196 208.09334063 61.45287558 216.37940499 52.0078125 224.30859375 C51.2240625 225.00984375 50.4403125 225.71109375 49.6328125 226.43359375 C39.22545819 233.86741826 27.3841616 236.95999019 15.0078125 239.30859375 C13.47253906 239.62183594 13.47253906 239.62183594 11.90625 239.94140625 C0.08560191 242.02395219 -16.5413277 244.12554702 -27.9921875 240.30859375 C-29.70527923 240.13519544 -31.41876384 239.9647903 -33.1340332 239.81445312 C-41.40271716 239.05605154 -49.27667043 237.41952877 -57.3046875 235.30859375 C-58.30081055 235.04731689 -59.29693359 234.78604004 -60.32324219 234.5168457 C-64.43728399 233.4021847 -68.22136334 232.3292395 -71.9921875 230.30859375 C-71.93160156 229.37144531 -71.87101563 228.43429687 -71.80859375 227.46875 C-70.99174578 214.42383586 -70.48186754 201.36935234 -69.9921875 188.30859375 C-68.54974726 188.77415221 -67.10858351 189.24366686 -65.66796875 189.71484375 C-64.86528564 189.97587891 -64.06260254 190.23691406 -63.2355957 190.50585938 C-60.9921875 191.30859375 -60.9921875 191.30859375 -58.1796875 192.80859375 C-54.16711035 194.69686535 -50.12637816 195.60430752 -45.8203125 196.6171875 C-42.9921875 197.30859375 -42.9921875 197.30859375 -39.7421875 198.43359375 C-37.30289544 199.20973213 -35.20663494 199.58140842 -32.6796875 199.87109375 C-28.9921875 200.30859375 -28.9921875 200.30859375 -27.9921875 201.30859375 C-23.59731647 201.57754635 -19.19631103 201.58007425 -14.79418945 201.60375977 C-12.59455279 201.62078519 -10.39649491 201.66461809 -8.19726562 201.70898438 C1.28252158 201.81390552 9.32721174 201.09290926 16.9453125 194.93359375 C22.13280456 188.33133113 22.47540893 182.94679152 22.3828125 174.80859375 C22.39441406 173.78894531 22.40601563 172.76929688 22.41796875 171.71875 C22.39650791 166.21762238 22.30520418 161.93188398 19.0078125 157.30859375 C17.00613337 155.41640338 15.13968723 153.80519086 12.9453125 152.18359375 C12.37039063 151.74982422 11.79546875 151.31605469 11.203125 150.86914062 C6.43651771 147.38666368 1.6223332 145.12738215 -3.9921875 143.30859375 C-5.66270932 142.65164697 -7.33040729 141.98734905 -8.9921875 141.30859375 C-8.9921875 140.64859375 -8.9921875 139.98859375 -8.9921875 139.30859375 C-10.7246875 138.93734375 -10.7246875 138.93734375 -12.4921875 138.55859375 C-16.27813041 137.61542903 -19.44944776 136.18642454 -22.8828125 134.36328125 C-25.08734027 133.26101737 -27.30574529 132.41216555 -29.6171875 131.55859375 C-34.04855865 129.820397 -38.16289527 127.69969897 -42.3046875 125.37109375 C-42.89137207 125.0472168 -43.47805664 124.72333984 -44.08251953 124.38964844 C-47.99092661 122.14256541 -50.93608717 119.60438823 -53.9921875 116.30859375 C-54.80558594 115.46683594 -55.61898437 114.62507813 -56.45703125 113.7578125 C-61.35693494 108.28509226 -64.94434337 103.14739195 -67.5546875 96.24609375 C-67.79372803 95.6224292 -68.03276855 94.99876465 -68.27905273 94.35620117 C-71.43043867 85.23116984 -71.1908861 75.29456705 -71.2421875 65.74609375 C-71.2628125 64.78251953 -71.2834375 63.81894531 -71.3046875 62.82617188 C-71.34073331 56.14417952 -70.26258227 50.57996877 -67.9921875 44.30859375 C-67.61578125 43.22449219 -67.239375 42.14039063 -66.8515625 41.0234375 C-60.74212481 25.72833117 -48.32179428 13.25012014 -33.19018555 6.50537109 C-28.22958622 4.5201504 -23.32154951 3.49176089 -18.0546875 2.68359375 C-1.20056402 0.01868608 -1.20056402 0.01868608 0 0 Z " fill="#030303" transform="translate(263.9921875,395.69140625)"/>
<path d="M0 0 C0.80759766 0.00064453 1.61519531 0.00128906 2.44726562 0.00195312 C9.39094521 0.05231019 16.07816475 0.22452541 22.45703125 3.24609375 C25.2305888 4.48621874 28.08025083 5.46793904 30.9375 6.5 C37.9616987 9.18548584 43.88871755 12.47796117 49.19140625 17.8515625 C53.25391914 21.24835076 57.49373352 20.77774586 62.5625 20.5625 C63.48571045 20.54251953 64.4089209 20.52253906 65.36010742 20.50195312 C72.77428695 20.31113518 80.17834035 19.88247973 87.5625 19.1875 C86.76299577 26.30103766 83.28993839 31.16851642 77.75390625 35.65234375 C73.99377047 38.00556904 70.94010784 38.61458369 66.5625 38.1875 C66.5625 38.8475 66.5625 39.5075 66.5625 40.1875 C64.12112374 40.38048206 61.69551089 40.51675245 59.25 40.625 C58.57904297 40.68365234 57.90808594 40.74230469 57.21679688 40.80273438 C52.22479556 40.96679076 49.85223085 39.80151704 45.95117188 36.71484375 C38.03984966 31.54902272 29.90634158 32.10321495 20.76953125 32.06640625 C18.96915809 32.03452581 17.16883589 31.99963969 15.36857605 31.9618988 C10.66534751 31.87127124 5.96255232 31.82108114 1.25866699 31.77972412 C-3.55518282 31.73010416 -8.36830908 31.64166775 -13.18164062 31.55664062 C-22.59995391 31.3959165 -32.01826791 31.27796777 -41.4375 31.1875 C-41.65901733 32.10644043 -41.65901733 32.10644043 -41.88500977 33.04394531 C-44.23398138 42.15749844 -49.43657868 48.33270368 -57.4375 53.1875 C-58.4275 53.1875 -59.4175 53.1875 -60.4375 53.1875 C-60.69180534 45.17688187 -60.05409193 38.42068386 -56.4375 31.1875 C-66.3375 31.1875 -76.2375 31.1875 -86.4375 31.1875 C-86.375625 35.065 -86.31375 38.9425 -86.25 42.9375 C-86.1721235 54.08067035 -86.97782631 64.92289336 -88.29785156 75.97924805 C-89.26273792 84.15740129 -89.81669051 92.2580674 -90.09130859 100.4855957 C-90.5050525 112.40961119 -91.49379162 124.29567552 -92.4375 136.1875 C-93.0975 136.1875 -93.7575 136.1875 -94.4375 136.1875 C-94.42964478 137.37001343 -94.42964478 137.37001343 -94.42163086 138.57641602 C-94.26886112 165.2299018 -94.26886112 165.2299018 -94.8125 178.5 C-94.84335693 179.33668213 -94.87421387 180.17336426 -94.90600586 181.03540039 C-95.12184141 185.65858893 -95.55039393 190.21321764 -96.14225769 194.80409241 C-97.62370095 206.36394007 -98.06970456 217.92296159 -98.5 229.5625 C-98.6158605 232.62738368 -98.73369015 235.69214282 -98.85679626 238.75674438 C-98.93246103 240.64522452 -99.00390732 242.53387971 -99.0705719 244.42269897 C-99.10408249 245.26853546 -99.13759308 246.11437195 -99.17211914 246.98583984 C-99.1993959 247.72732269 -99.22667267 248.46880554 -99.254776 249.23275757 C-99.4375 251.1875 -99.4375 251.1875 -100.4375 254.1875 C-100.60746836 255.82729311 -100.73106632 257.47210124 -100.82641602 259.11791992 C-100.88640274 260.11873093 -100.94638947 261.11954193 -101.00819397 262.15068054 C-101.09888405 263.7679882 -101.09888405 263.7679882 -101.19140625 265.41796875 C-101.25657944 266.52352615 -101.32175262 267.62908356 -101.38890076 268.7681427 C-101.59643074 272.30355033 -101.79827961 275.83925659 -102 279.375 C-102.13960027 281.7702041 -102.27956958 284.16538672 -102.41992188 286.56054688 C-102.7633993 292.43595528 -103.10221142 298.31161891 -103.4375 304.1875 C-102.86484406 304.18520889 -102.29218811 304.18291779 -101.70217896 304.18055725 C-80.74794557 304.10785884 -80.74794557 304.10785884 -70.3125 304.625 C-68.94738281 304.68397461 -68.94738281 304.68397461 -67.5546875 304.74414062 C-63.17934625 304.94612726 -58.83253157 305.23311869 -54.47485352 305.67602539 C-47.81401497 306.28983006 -41.15710139 306.49770386 -34.47265625 306.6875 C-33.12713365 306.7279869 -31.78161887 306.76873452 -30.43611145 306.8097229 C-26.86070475 306.91768772 -23.28518461 307.02128491 -19.70961761 307.12378693 C-17.49398188 307.18767353 -15.27838878 307.2528742 -13.06280518 307.31854248 C11.80981099 308.05570923 36.68403796 308.68194836 61.5625 309.1875 C61.5625 314.1375 61.5625 319.0875 61.5625 324.1875 C56.97259267 324.21052629 52.38288794 324.23041866 47.79296875 324.24243164 C46.23339151 324.24744272 44.67381892 324.25425337 43.11425781 324.26293945 C40.86522264 324.27514686 38.6162499 324.28076068 36.3671875 324.28515625 C35.33088699 324.29289818 35.33088699 324.29289818 34.27365112 324.30079651 C31.37853868 324.30112771 28.63522939 324.20029808 25.78065491 323.69798279 C22.27664397 323.14215582 18.90830525 322.99222552 15.36157227 322.90625 C14.66612305 322.88820313 13.97067383 322.87015625 13.25415039 322.8515625 C10.9624811 322.79299876 8.67071462 322.74031383 6.37890625 322.6875 C4.76105182 322.64691271 3.14320828 322.60588903 1.52537537 322.56445312 C-2.74166724 322.4560583 -7.00880949 322.35234703 -11.27600098 322.25 C-18.84949868 322.06787465 -26.42282798 321.87900329 -33.99609375 321.6875 C-34.81197779 321.6670204 -35.62786182 321.64654079 -36.46846962 321.6254406 C-46.86411228 321.36256667 -57.25026172 321.02360342 -67.63806152 320.53297424 C-77.71287651 320.06266055 -87.79211554 319.84366927 -97.875 319.625 C-99.79362473 319.58159808 -101.71224456 319.53797885 -103.63085938 319.49414062 C-108.23302074 319.38944284 -112.8352367 319.28761218 -117.4375 319.1875 C-117.65979306 305.40533035 -117.06529049 291.71229635 -116.265625 277.95458984 C-116.06205372 274.42977271 -115.87041545 270.90443906 -115.6796875 267.37890625 C-115.11233228 257.2372363 -114.47953239 247.23581316 -112.86132812 237.20263672 C-112.11106236 231.86520456 -112.01013565 226.50735413 -111.875 221.125 C-111.81488742 218.96734197 -111.7512208 216.80977933 -111.68359375 214.65234375 C-111.65966553 213.720271 -111.6357373 212.78819824 -111.61108398 211.82788086 C-111.43807225 209.19620444 -110.97528796 206.76623525 -110.4375 204.1875 C-110.01036652 200.46676691 -109.73312367 196.73328825 -109.4375 193 C-109.34992432 191.9059082 -109.26234863 190.81181641 -109.17211914 189.68457031 C-108.47138421 180.50775092 -108.07341693 171.33375354 -107.76391602 162.13647461 C-107.51506849 154.79688332 -107.13325868 147.50036783 -106.4375 140.1875 C-105.7775 140.1875 -105.1175 140.1875 -104.4375 140.1875 C-104.46070312 138.87265625 -104.48390625 137.5578125 -104.5078125 136.203125 C-104.65982278 123.05600371 -104.23016017 109.99821107 -103.5 96.875 C-103.45643372 96.06929565 -103.41286743 95.26359131 -103.36798096 94.43347168 C-103.24162329 92.12587144 -103.10861209 89.81877151 -102.97265625 87.51171875 C-102.93405991 86.81582138 -102.89546356 86.11992401 -102.85569763 85.40293884 C-102.67247805 82.45057521 -102.37868661 80.01105984 -101.4375 77.1875 C-101.23118941 75.12206595 -101.07111035 73.05187652 -100.9375 70.98046875 C-100.81375 69.1406543 -100.81375 69.1406543 -100.6875 67.26367188 C-100.605 65.98041016 -100.5225 64.69714844 -100.4375 63.375 C-100.27352507 60.84748018 -100.10694805 58.32012754 -99.9375 55.79296875 C-99.8653125 54.67043701 -99.793125 53.54790527 -99.71875 52.39135742 C-99.4375 49.1875 -99.4375 49.1875 -98.92602539 46.16674805 C-98.41624763 43.05789348 -98.23016579 40.06156985 -98.12109375 36.9140625 C-98.07919922 35.76035156 -98.03730469 34.60664063 -97.99414062 33.41796875 C-97.95482422 32.22816406 -97.91550781 31.03835938 -97.875 29.8125 C-97.83181641 28.59949219 -97.78863281 27.38648438 -97.74414062 26.13671875 C-97.63844487 23.15374968 -97.53634679 20.17070258 -97.4375 17.1875 C-93.43751563 17.15822084 -89.43755924 17.14060781 -85.4375 17.125 C-84.31214844 17.11662109 -83.18679687 17.10824219 -82.02734375 17.09960938 C-76.04210148 17.08210867 -70.35972002 17.37043023 -64.4375 18.1875 C-61.35354959 18.4124557 -58.27862876 18.50582931 -55.1875 18.5625 C-54.39859375 18.59988281 -53.6096875 18.63726562 -52.796875 18.67578125 C-50.57269888 18.70959474 -48.60994594 18.66969512 -46.4375 18.1875 C-44.28585555 15.92803501 -44.28585555 15.92803501 -42.4375 13.1875 C-40.02508214 11.54535534 -37.44544352 10.31212628 -34.8125 9.0625 C-34.099729 8.71558105 -33.38695801 8.36866211 -32.65258789 8.01123047 C-27.37107308 5.49633731 -22.11895815 3.59104127 -16.4375 2.1875 C-15.385625 1.83816406 -14.33375 1.48882812 -13.25 1.12890625 C-8.72234034 0.01090832 -4.63802909 -0.06999408 0 0 Z " fill="#A3200B" transform="translate(201.4375,353.8125)"/>
<path d="M0 0 C1.11713379 0.00918457 1.11713379 0.00918457 2.25683594 0.01855469 C10.34176627 0.24694255 17.9838629 2.41699417 23.6875 8.4375 C32.92917159 21.4146504 34.86939734 34.10610531 34.9375 49.625 C34.958125 50.78064453 34.97875 51.93628906 35 53.12695312 C35.0563841 65.67946416 32.68197677 79.54385172 24.1875 89.3125 C23.3625 90.01375 22.5375 90.715 21.6875 91.4375 C20.924375 92.30375 20.16125 93.17 19.375 94.0625 C13.38703149 99.35419311 7.9961819 99.77465426 0.25 99.4375 C-9.25314107 98.77220859 -15.06611072 96.25781929 -21.5625 89.125 C-29.67702582 77.92158708 -31.11001299 64.94918323 -30.85449219 51.50878906 C-30.81226084 49.17427958 -30.81348265 46.84264456 -30.8203125 44.5078125 C-30.7565406 29.32338256 -28.31732877 16.12715298 -17.3515625 4.9453125 C-11.82723617 0.86027425 -6.69095101 -0.09381252 0 0 Z " fill="#F1F1F0" transform="translate(660.3125,504.5625)"/>
<path d="M0 0 C4.93553639 3.62281572 8.05482544 7.71178215 10.9375 13.0625 C11.515 14.031875 12.0925 15.00125 12.6875 16 C18.48515561 30.20425624 19.8042685 51.86027329 13.9375 66.0625 C13.58036662 67.43151127 13.24663786 68.80685888 12.9375 70.1875 C10.62454532 79.53183691 6.32997188 84.65609323 -1.125 90.4375 C-8.46191874 94.49622101 -17.56470723 93.61654043 -25.5390625 91.88671875 C-32.98131631 89.45588972 -39.74458613 83.86639026 -43.79296875 77.22265625 C-47.57325755 69.185742 -49.4592735 61.91600898 -50.0625 53.0625 C-50.11164551 52.39702148 -50.16079102 51.73154297 -50.21142578 51.04589844 C-51.31094095 34.21819321 -47.03142484 19.90224351 -36.15234375 6.75390625 C-26.76646105 -3.41568832 -12.58401021 -7.38216152 0 0 Z " fill="#F0F1F0" transform="translate(881.0625,508.9375)"/>
<path d="M0 0 C0.33 0 0.66 0 1 0 C1.44210028 15.37526522 0.12519536 30.67819082 -1 46 C0.24910156 45.98839844 1.49820313 45.97679687 2.78515625 45.96484375 C12.57688642 45.90303928 22.34145223 46.01212836 32.125 46.4375 C33.50764038 46.49635376 33.50764038 46.49635376 34.91821289 46.55639648 C39.28148398 46.76084511 43.6168177 47.04682303 47.96264648 47.48852539 C54.62348503 48.10233006 61.28039861 48.31020386 67.96484375 48.5 C69.31036635 48.5404869 70.65588113 48.58123452 72.00138855 48.6222229 C75.57679525 48.73018772 79.15231539 48.83378491 82.72788239 48.93628693 C84.94351812 49.00017353 87.15911122 49.0653742 89.37469482 49.13104248 C114.24731099 49.86820923 139.12153796 50.49444836 164 51 C164 55.95 164 60.9 164 66 C159.41009267 66.02302629 154.82038794 66.04291866 150.23046875 66.05493164 C148.67089151 66.05994272 147.11131892 66.06675337 145.55175781 66.07543945 C143.30272264 66.08764686 141.0537499 66.09326068 138.8046875 66.09765625 C137.76838699 66.10539818 137.76838699 66.10539818 136.71115112 66.11329651 C133.81603868 66.11362771 131.07272939 66.01279808 128.21815491 65.51048279 C124.71414397 64.95465582 121.34580525 64.80472552 117.79907227 64.71875 C117.10362305 64.70070313 116.40817383 64.68265625 115.69165039 64.6640625 C113.3999811 64.60549876 111.10821462 64.55281383 108.81640625 64.5 C107.19855182 64.45941271 105.58070828 64.41838903 103.96287537 64.37695312 C99.69583276 64.2685583 95.42869051 64.16484703 91.16149902 64.0625 C83.58800132 63.88037465 76.01467202 63.69150329 68.44140625 63.5 C67.62552221 63.4795204 66.80963818 63.45904079 65.96903038 63.4379406 C55.57338772 63.17506667 45.18723828 62.83610342 34.79943848 62.34547424 C24.72462349 61.87516055 14.64538446 61.65616927 4.5625 61.4375 C2.64387527 61.39409808 0.72525544 61.35047885 -1.19335938 61.30664062 C-5.79552074 61.20194284 -10.3977367 61.10011218 -15 61 C-15 60.34 -15 59.68 -15 59 C-12.36 58.34 -9.72 57.68 -7 57 C-7.33 55.68 -7.66 54.36 -8 53 C-7.34 53 -6.68 53 -6 53 C-5.85287576 50.58340614 -5.70714826 48.16674266 -5.5625 45.75 C-5.51738281 45.00161865 -5.47226563 44.2532373 -5.42578125 43.48217773 C-5.16956851 39.15191556 -4.94047251 34.82178419 -4.74609375 30.48828125 C-4.70476318 29.58432617 -4.66343262 28.68037109 -4.62084961 27.74902344 C-4.54105213 25.97510126 -4.46496896 24.20100762 -4.39282227 22.42675781 C-4.11070487 16.22140974 -4.11070487 16.22140974 -3 14 C-2.34 14 -1.68 14 -1 14 C-1.01160156 13.24074219 -1.02320312 12.48148438 -1.03515625 11.69921875 C-1.04417969 10.70535156 -1.05320312 9.71148438 -1.0625 8.6875 C-1.07410156 7.70136719 -1.08570312 6.71523438 -1.09765625 5.69921875 C-1 3 -1 3 0 0 Z " fill="#A32915" transform="translate(99,612)"/>
<path d="M0 0 C10.56 0 21.12 0 32 0 C32 5.28 32 10.56 32 16 C21.44 16 10.88 16 0 16 C0 10.72 0 5.44 0 0 Z " fill="#FF6E3C" transform="translate(976,1008)"/>
<path d="M0 0 C5.28 0 10.56 0 16 0 C16 5.28 16 10.56 16 16 C10.72 16 5.44 16 0 16 C0 10.72 0 5.44 0 0 Z " fill="#3C46FF" transform="translate(1008,1008)"/>
<path d="M0 0 C5.28 0 10.56 0 16 0 C16 5.28 16 10.56 16 16 C10.72 16 5.44 16 0 16 C0 10.72 0 5.44 0 0 Z " fill="#51DA4C" transform="translate(976,1008)"/>
<path d="M0 0 C5.28 0 10.56 0 16 0 C16 5.28 16 10.56 16 16 C10.72 16 5.44 16 0 16 C0 10.72 0 5.44 0 0 Z " fill="#42FFFF" transform="translate(960,1008)"/>
<path d="M0 0 C5.28 0 10.56 0 16 0 C16 5.28 16 10.56 16 16 C10.72 16 5.44 16 0 16 C0 10.72 0 5.44 0 0 Z " fill="#FFFF66" transform="translate(944,1008)"/>
<path d="M0 0 C0.495 0.99 0.495 0.99 1 2 C-14.18 2 -29.36 2 -45 2 C-45 1.34 -45 0.68 -45 0 C-29.13173433 -6.23396151 -15.84161194 -6.50215416 0 0 Z " fill="#E2EAE7" transform="translate(225,371)"/>
<path d="M0 0 C14.19 0 28.38 0 43 0 C43 2.31 43 4.62 43 7 C42 8 42 8 38.0625 8.3125 C32.11938385 8.26992753 26.59532518 6.93555779 20.84619141 5.56811523 C15.01646942 4.18610593 9.25951047 3.2202647 3.30859375 2.4921875 C2.54675781 2.32976563 1.78492188 2.16734375 1 2 C0.67 1.34 0.34 0.68 0 0 Z " fill="#CE3D25" transform="translate(220,663)"/>
<path d="M0 0 C0.33 0 0.66 0 1 0 C1.44210028 15.37526522 0.12519536 30.67819082 -1 46 C0.24910156 45.98839844 1.49820313 45.97679687 2.78515625 45.96484375 C16.21738338 45.88145423 29.58649864 46.30750014 43 47 C43 47.33 43 47.66 43 48 C27.30100064 48.10483203 11.66244434 48.17415915 -4 47 C-4 48.65 -4 50.3 -4 52 C-4.66 52 -5.32 52 -6 52 C-5.73912639 46.90935712 -5.47248263 41.81906213 -5.20043945 36.72900391 C-5.10867394 34.99666585 -5.01849782 33.26424285 -4.92993164 31.53173828 C-4.80250139 29.04435674 -4.66939562 26.55733469 -4.53515625 24.0703125 C-4.49656998 23.29317902 -4.4579837 22.51604553 -4.41822815 21.71536255 C-4.11387171 16.22774341 -4.11387171 16.22774341 -3 14 C-2.34 14 -1.68 14 -1 14 C-1.01160156 13.24074219 -1.02320312 12.48148438 -1.03515625 11.69921875 C-1.04417969 10.70535156 -1.05320312 9.71148438 -1.0625 8.6875 C-1.07410156 7.70136719 -1.08570312 6.71523438 -1.09765625 5.69921875 C-1 3 -1 3 0 0 Z " fill="#8B6361" transform="translate(99,612)"/>
<path d="M0 0 C6.6752034 -0.02526945 13.35039457 -0.04283268 20.02563477 -0.05493164 C22.29842591 -0.05997325 24.5712138 -0.06680637 26.84399414 -0.07543945 C30.10303551 -0.08751261 33.36203417 -0.09322987 36.62109375 -0.09765625 C37.64400009 -0.10281754 38.66690643 -0.10797882 39.72080994 -0.11329651 C40.66170975 -0.11337204 41.60260956 -0.11344757 42.57202148 -0.11352539 C43.40475082 -0.115746 44.23748016 -0.11796661 45.09544373 -0.12025452 C47 0 47 0 48 1 C48.24203818 5.84076364 48.37834109 9.639708 46 14 C45.34 14.33 44.68 14.66 44 15 C44 10.38 44 5.76 44 1 C29.48 1 14.96 1 0 1 C0 0.67 0 0.34 0 0 Z " fill="#A3A1A4" transform="translate(219,662)"/>
<path d="M0 0 C0.66 0 1.32 0 2 0 C1.59048976 12.77305728 1.05469886 25.37257887 -1 38 C-1.66 38 -2.32 38 -3 38 C-2.73912639 32.90935712 -2.47248263 27.81906213 -2.20043945 22.72900391 C-2.10867394 20.99666585 -2.01849782 19.26424285 -1.92993164 17.53173828 C-1.80250139 15.04435674 -1.66939562 12.55733469 -1.53515625 10.0703125 C-1.49656998 9.29317902 -1.4579837 8.51604553 -1.41822815 7.71536255 C-1.11387171 2.22774341 -1.11387171 2.22774341 0 0 Z " fill="#C7391F" transform="translate(96,626)"/>
<path d="M0 0 C14.19 0 28.38 0 43 0 C43 0.33 43 0.66 43 1 C26.665 1.495 26.665 1.495 10 2 C10 2.33 10 2.66 10 3 C8.5199159 2.88637738 7.04089926 2.75877092 5.5625 2.625 C4.73878906 2.55539062 3.91507813 2.48578125 3.06640625 2.4140625 C2.38449219 2.27742187 1.70257813 2.14078125 1 2 C0.67 1.34 0.34 0.68 0 0 Z " fill="#8D3D31" transform="translate(220,663)"/>
<path d="M0 0 C0.33 0 0.66 0 1 0 C1 8.58 1 17.16 1 26 C0.67 26 0.34 26 0 26 C-0.06058594 25.25234375 -0.12117188 24.5046875 -0.18359375 23.734375 C-0.26738281 22.74953125 -0.35117188 21.7646875 -0.4375 20.75 C-0.51871094 19.77546875 -0.59992188 18.8009375 -0.68359375 17.796875 C-0.9153713 15.10288041 -0.9153713 15.10288041 -1.55859375 12.96484375 C-2.12072922 10.46259469 -1.90305197 8.35629973 -1.625 5.8125 C-1.53476563 4.93207031 -1.44453125 4.05164063 -1.3515625 3.14453125 C-1 1 -1 1 0 0 Z " fill="#A13C2B" transform="translate(105,517)"/>
<path d="M0 0 C0.33 0 0.66 0 1 0 C1.36799953 9.46576558 0.22914592 18.63873691 -1 28 C-1.33 28 -1.66 28 -2 28 C-2 21.4 -2 14.8 -2 8 C-1.34 8 -0.68 8 0 8 C0 5.36 0 2.72 0 0 Z " fill="#9D4435" transform="translate(113,412)"/>
<path d="M0 0 C0.99 0 1.98 0 3 0 C3.05429959 1.74965358 3.09292823 3.49979787 3.125 5.25 C3.14820312 6.22453125 3.17140625 7.1990625 3.1953125 8.203125 C2.99862781 11.0196498 2.44568916 12.60949036 1 15 C0.63355422 13.44033408 0.28239138 11.87707349 -0.0625 10.3125 C-0.25972656 9.44238281 -0.45695312 8.57226562 -0.66015625 7.67578125 C-1.02032279 4.83998724 -0.70909969 2.75210018 0 0 Z " fill="#7C0F03" transform="translate(102,532)"/>
<path d="M0 0 C3.96 0 7.92 0 12 0 C9.70176341 2.29823659 9.05119118 2.29690384 5.9375 2.5625 C2.23263383 2.55913448 2.23263383 2.55913448 1 4 C-0.66617115 4.04063832 -2.33388095 4.042721 -4 4 C-2.68 3.67 -1.36 3.34 0 3 C0 2.01 0 1.02 0 0 Z " fill="#D9DADA" transform="translate(253,394)"/>
<path d="M0 0 C0.33 0 0.66 0 1 0 C1.07654536 4.51617599 1.10228696 8.59085217 0 13 C-0.66 13 -1.32 13 -2 13 C-1.85851011 11.3954444 -1.71164314 9.79136233 -1.5625 8.1875 C-1.48128906 7.29417969 -1.40007812 6.40085937 -1.31640625 5.48046875 C-1 3 -1 3 0 0 Z " fill="#CB999B" transform="translate(95,651)"/>
<path d="M0 0 C1.66611905 -0.042721 3.33382885 -0.04063832 5 0 C6 1 6 1 6.0625 3.5625 C6.041875 4.366875 6.02125 5.17125 6 6 C5.01 6.33 4.02 6.66 3 7 C2.814375 5.824375 2.814375 5.824375 2.625 4.625 C2.20882007 1.85942178 2.20882007 1.85942178 0 0 Z " fill="#CBD7DE" transform="translate(261,662)"/>
<path d="M0 0 C0.33 0 0.66 0 1 0 C1.17835515 4.54805635 0.99785435 7.8794254 -1 12 C-1.33 12 -1.66 12 -2 12 C-1.85962479 10.18706911 -1.71255111 8.3746557 -1.5625 6.5625 C-1.48128906 5.55316406 -1.40007812 4.54382813 -1.31640625 3.50390625 C-1 1 -1 1 0 0 Z " fill="#C06153" transform="translate(96,642)"/>
</svg>
